<svg viewBox="0 0 26 26" xmlns="http://www.w3.org/2000/svg">
<path d="M18.5938 9.07812L23.1719 4.5L21.5 2.82812L16.9219 7.40625L18.5938 9.07812ZM25.5781 4.5C25.5781 4.78125 25.4844 5.01562 25.2969 5.20312L5.20312 25.2969C5.01562 25.4844 4.78125 25.5781 4.5 25.5781C4.21875 25.5781 3.98438 25.4844 3.79688 25.2969L0.703125 22.2031C0.515625 22.0156 0.421875 21.7812 0.421875 21.5C0.421875 21.2188 0.515625 20.9844 0.703125 20.7969L20.7969 0.703125C20.9844 0.515625 21.2188 0.421875 21.5 0.421875C21.7812 0.421875 22.0156 0.515625 22.2031 0.703125L25.2969 3.79688C25.4844 3.98438 25.5781 4.21875 25.5781 4.5ZM4.46875 1.53125L6 2L4.46875 2.46875L4 4L3.53125 2.46875L2 2L3.53125 1.53125L4 0L4.46875 1.53125ZM9.9375 4.0625L13 5L9.9375 5.9375L9 9L8.0625 5.9375L5 5L8.0625 4.0625L9 1L9.9375 4.0625ZM24.4688 11.5312L26 12L24.4688 12.4688L24 14L23.5312 12.4688L22 12L23.5312 11.5312L24 10L24.4688 11.5312ZM14.4688 1.53125L16 2L14.4688 2.46875L14 4L13.5312 2.46875L12 2L13.5312 1.53125L14 0L14.4688 1.53125Z" />
</svg>
